<svg width="60" height="60" viewBox="0 0 60 60" fill="none" xmlns="http://www.w3.org/2000/svg">
<g clip-path="url(#clip0_22_28)">
<path d="M0.142517 60L4.36002 44.5925C1.75752 40.0825 0.390017 34.97 0.392517 29.7275C0.400017 13.3375 13.7375 0 30.125 0C38.0775 0.0025 45.5425 3.1 51.1575 8.72C56.77 14.34 59.86 21.81 59.8575 29.755C59.85 46.1475 46.5125 59.485 30.125 59.485C25.15 59.4825 20.2475 58.235 15.905 55.865L0.142517 60ZM16.635 50.4825C20.825 52.97 24.825 54.46 30.115 54.4625C43.735 54.4625 54.83 43.3775 54.8375 29.75C54.8425 16.095 43.8 5.025 30.135 5.02C16.505 5.02 5.41752 16.105 5.41252 29.73C5.41002 35.2925 7.04002 39.4575 9.77752 43.815L7.28002 52.935L16.635 50.4825ZM45.1025 36.8225C44.9175 36.5125 44.4225 36.3275 43.6775 35.955C42.935 35.5825 39.2825 33.785 38.6 33.5375C37.92 33.29 37.425 33.165 36.9275 33.91C36.4325 34.6525 35.0075 36.3275 34.575 36.8225C34.1425 37.3175 33.7075 37.38 32.965 37.0075C32.2225 36.635 29.8275 35.8525 26.99 33.32C24.7825 31.35 23.29 28.9175 22.8575 28.1725C22.425 27.43 22.8125 27.0275 23.1825 26.6575C23.5175 26.325 23.925 25.79 24.2975 25.355C24.675 24.925 24.7975 24.615 25.0475 24.1175C25.295 23.6225 25.1725 23.1875 24.985 22.815C24.7975 22.445 23.3125 18.7875 22.695 17.3C22.09 15.8525 21.4775 16.0475 21.0225 16.025L19.5975 16C19.1025 16 18.2975 16.185 17.6175 16.93C16.9375 17.675 15.0175 19.47 15.0175 23.1275C15.0175 26.785 17.68 30.3175 18.05 30.8125C18.4225 31.3075 23.2875 38.8125 30.74 42.03C32.5125 42.795 33.8975 43.2525 34.975 43.595C36.755 44.16 38.375 44.08 39.655 43.89C41.0825 43.6775 44.05 42.0925 44.67 40.3575C45.29 38.62 45.29 37.1325 45.1025 36.8225Z" fill="white"/>
</g>
<defs>
<clipPath id="clip0_22_28">
<rect width="60" height="60" fill="white"/>
</clipPath>
</defs>
</svg>
